<mxfile host="www.draw.io" modified="2024-03-28T13:58:08.220Z" agent="Mozilla/5.0 (Windows NT 10.0; Win64; x64) AppleWebKit/537.36 (KHTML, like Gecko) Chrome/123.0.0.0 Safari/537.36" etag="yxESHVVxpgUuXwPJ_77Z" version="24.2.0" type="device">
  <diagram name="Page-1" id="pRJpxutpEvEzpziJwdYP">
    <mxGraphModel dx="677" dy="1076" grid="1" gridSize="10" guides="1" tooltips="1" connect="1" arrows="1" fold="1" page="1" pageScale="1" pageWidth="827" pageHeight="1169" math="0" shadow="0">
      <root>
        <mxCell id="0" />
        <mxCell id="1" parent="0" />
        <mxCell id="tNtBnJCOBXsDg5gNjMjy-10" style="edgeStyle=orthogonalEdgeStyle;rounded=0;orthogonalLoop=1;jettySize=auto;html=1;exitX=0.5;exitY=1;exitDx=0;exitDy=0;entryX=0.5;entryY=0;entryDx=0;entryDy=0;" edge="1" parent="1" source="tNtBnJCOBXsDg5gNjMjy-1" target="tNtBnJCOBXsDg5gNjMjy-2">
          <mxGeometry relative="1" as="geometry" />
        </mxCell>
        <mxCell id="tNtBnJCOBXsDg5gNjMjy-11" style="edgeStyle=orthogonalEdgeStyle;rounded=0;orthogonalLoop=1;jettySize=auto;html=1;exitX=0.5;exitY=1;exitDx=0;exitDy=0;entryX=0.5;entryY=0;entryDx=0;entryDy=0;" edge="1" parent="1" source="tNtBnJCOBXsDg5gNjMjy-1" target="tNtBnJCOBXsDg5gNjMjy-3">
          <mxGeometry relative="1" as="geometry" />
        </mxCell>
        <mxCell id="tNtBnJCOBXsDg5gNjMjy-12" style="edgeStyle=orthogonalEdgeStyle;rounded=0;orthogonalLoop=1;jettySize=auto;html=1;exitX=0.5;exitY=1;exitDx=0;exitDy=0;entryX=0.5;entryY=0;entryDx=0;entryDy=0;" edge="1" parent="1" source="tNtBnJCOBXsDg5gNjMjy-1" target="tNtBnJCOBXsDg5gNjMjy-4">
          <mxGeometry relative="1" as="geometry" />
        </mxCell>
        <mxCell id="tNtBnJCOBXsDg5gNjMjy-1" value="&lt;b&gt;&lt;font style=&quot;font-size: 16px;&quot;&gt;Input&lt;/font&gt;&lt;/b&gt;" style="rounded=0;whiteSpace=wrap;html=1;fillColor=#f5f5f5;fontColor=#333333;strokeColor=#666666;" vertex="1" parent="1">
          <mxGeometry x="240" y="40" width="80" height="30" as="geometry" />
        </mxCell>
        <mxCell id="tNtBnJCOBXsDg5gNjMjy-21" style="edgeStyle=orthogonalEdgeStyle;rounded=0;orthogonalLoop=1;jettySize=auto;html=1;exitX=0.5;exitY=1;exitDx=0;exitDy=0;entryX=0.5;entryY=0;entryDx=0;entryDy=0;" edge="1" parent="1" source="tNtBnJCOBXsDg5gNjMjy-2" target="tNtBnJCOBXsDg5gNjMjy-16">
          <mxGeometry relative="1" as="geometry">
            <mxPoint x="130" y="450" as="targetPoint" />
            <Array as="points">
              <mxPoint x="100" y="460" />
              <mxPoint x="265" y="460" />
            </Array>
          </mxGeometry>
        </mxCell>
        <mxCell id="tNtBnJCOBXsDg5gNjMjy-2" value="&lt;b&gt;&lt;font style=&quot;font-size: 16px;&quot;&gt;3 * 3&lt;/font&gt;&lt;/b&gt;&lt;div&gt;&lt;b&gt;&lt;font style=&quot;font-size: 16px;&quot;&gt;MaxPooling , stride 2,&amp;nbsp;&lt;/font&gt;&lt;/b&gt;&lt;/div&gt;&lt;div&gt;&lt;span style=&quot;font-size: 16px;&quot;&gt;&lt;b&gt;1&lt;/b&gt;&lt;/span&gt;&lt;/div&gt;" style="rounded=0;whiteSpace=wrap;html=1;fillColor=#d5e8d4;strokeColor=#82b366;" vertex="1" parent="1">
          <mxGeometry x="30" y="110" width="140" height="80" as="geometry" />
        </mxCell>
        <mxCell id="tNtBnJCOBXsDg5gNjMjy-9" value="" style="edgeStyle=orthogonalEdgeStyle;rounded=0;orthogonalLoop=1;jettySize=auto;html=1;" edge="1" parent="1" source="tNtBnJCOBXsDg5gNjMjy-3" target="tNtBnJCOBXsDg5gNjMjy-8">
          <mxGeometry relative="1" as="geometry" />
        </mxCell>
        <mxCell id="tNtBnJCOBXsDg5gNjMjy-3" value="&lt;span style=&quot;font-size: 16px;&quot;&gt;&lt;b&gt;1 * 1&amp;nbsp; Conv, 192&lt;/b&gt;&lt;/span&gt;" style="rounded=0;whiteSpace=wrap;html=1;fillColor=#f8cecc;strokeColor=#b85450;" vertex="1" parent="1">
          <mxGeometry x="210" y="110" width="110" height="60" as="geometry" />
        </mxCell>
        <mxCell id="tNtBnJCOBXsDg5gNjMjy-13" value="" style="edgeStyle=orthogonalEdgeStyle;rounded=0;orthogonalLoop=1;jettySize=auto;html=1;" edge="1" parent="1" source="tNtBnJCOBXsDg5gNjMjy-4" target="tNtBnJCOBXsDg5gNjMjy-5">
          <mxGeometry relative="1" as="geometry" />
        </mxCell>
        <mxCell id="tNtBnJCOBXsDg5gNjMjy-4" value="&lt;span style=&quot;font-size: 16px;&quot;&gt;&lt;b&gt;1 * 1&amp;nbsp; Conv, 256&lt;/b&gt;&lt;/span&gt;" style="rounded=0;whiteSpace=wrap;html=1;fillColor=#f8cecc;strokeColor=#b85450;" vertex="1" parent="1">
          <mxGeometry x="370" y="110" width="110" height="60" as="geometry" />
        </mxCell>
        <mxCell id="tNtBnJCOBXsDg5gNjMjy-14" value="" style="edgeStyle=orthogonalEdgeStyle;rounded=0;orthogonalLoop=1;jettySize=auto;html=1;" edge="1" parent="1" source="tNtBnJCOBXsDg5gNjMjy-5" target="tNtBnJCOBXsDg5gNjMjy-6">
          <mxGeometry relative="1" as="geometry" />
        </mxCell>
        <mxCell id="tNtBnJCOBXsDg5gNjMjy-5" value="&lt;span style=&quot;font-size: 16px;&quot;&gt;&lt;b&gt;1 * 1&amp;nbsp; Conv, 256&lt;/b&gt;&lt;/span&gt;" style="rounded=0;whiteSpace=wrap;html=1;fillColor=#f8cecc;strokeColor=#b85450;" vertex="1" parent="1">
          <mxGeometry x="370" y="200" width="110" height="60" as="geometry" />
        </mxCell>
        <mxCell id="tNtBnJCOBXsDg5gNjMjy-15" value="" style="edgeStyle=orthogonalEdgeStyle;rounded=0;orthogonalLoop=1;jettySize=auto;html=1;" edge="1" parent="1" source="tNtBnJCOBXsDg5gNjMjy-6" target="tNtBnJCOBXsDg5gNjMjy-7">
          <mxGeometry relative="1" as="geometry" />
        </mxCell>
        <mxCell id="tNtBnJCOBXsDg5gNjMjy-6" value="&lt;span style=&quot;font-size: 16px;&quot;&gt;&lt;b&gt;1 * 1&amp;nbsp; Conv, 256&lt;/b&gt;&lt;/span&gt;" style="rounded=0;whiteSpace=wrap;html=1;fillColor=#f8cecc;strokeColor=#b85450;" vertex="1" parent="1">
          <mxGeometry x="370" y="290" width="110" height="60" as="geometry" />
        </mxCell>
        <mxCell id="tNtBnJCOBXsDg5gNjMjy-20" style="edgeStyle=orthogonalEdgeStyle;rounded=0;orthogonalLoop=1;jettySize=auto;html=1;exitX=0.5;exitY=1;exitDx=0;exitDy=0;entryX=0.5;entryY=0;entryDx=0;entryDy=0;" edge="1" parent="1" source="tNtBnJCOBXsDg5gNjMjy-7" target="tNtBnJCOBXsDg5gNjMjy-16">
          <mxGeometry relative="1" as="geometry" />
        </mxCell>
        <mxCell id="tNtBnJCOBXsDg5gNjMjy-7" value="&lt;span style=&quot;font-size: 16px;&quot;&gt;&lt;b&gt;1 * 1&amp;nbsp; Conv, 256&lt;/b&gt;&lt;/span&gt;" style="rounded=0;whiteSpace=wrap;html=1;fillColor=#f8cecc;strokeColor=#b85450;" vertex="1" parent="1">
          <mxGeometry x="370" y="380" width="110" height="60" as="geometry" />
        </mxCell>
        <mxCell id="tNtBnJCOBXsDg5gNjMjy-18" style="edgeStyle=orthogonalEdgeStyle;rounded=0;orthogonalLoop=1;jettySize=auto;html=1;exitX=0.5;exitY=1;exitDx=0;exitDy=0;entryX=0.5;entryY=0;entryDx=0;entryDy=0;" edge="1" parent="1" source="tNtBnJCOBXsDg5gNjMjy-8" target="tNtBnJCOBXsDg5gNjMjy-16">
          <mxGeometry relative="1" as="geometry">
            <mxPoint x="280" y="410" as="targetPoint" />
          </mxGeometry>
        </mxCell>
        <mxCell id="tNtBnJCOBXsDg5gNjMjy-8" value="&lt;span style=&quot;font-size: 16px;&quot;&gt;&lt;b&gt;3 * 3 Conv,&amp;nbsp;&lt;/b&gt;&lt;/span&gt;&lt;div&gt;&lt;span style=&quot;font-size: 16px;&quot;&gt;&lt;b&gt;Stride 2&lt;/b&gt;&lt;/span&gt;&lt;/div&gt;&lt;div&gt;&lt;span style=&quot;font-size: 16px;&quot;&gt;&lt;b&gt;192&lt;/b&gt;&lt;/span&gt;&lt;/div&gt;" style="rounded=0;whiteSpace=wrap;html=1;fillColor=#f8cecc;strokeColor=#b85450;" vertex="1" parent="1">
          <mxGeometry x="210" y="200" width="110" height="60" as="geometry" />
        </mxCell>
        <mxCell id="tNtBnJCOBXsDg5gNjMjy-16" value="&lt;b&gt;&lt;font style=&quot;font-size: 16px;&quot;&gt;Concatenate&lt;/font&gt;&lt;/b&gt;" style="rounded=0;whiteSpace=wrap;html=1;fillColor=#f5f5f5;fontColor=#333333;strokeColor=#666666;" vertex="1" parent="1">
          <mxGeometry x="212.5" y="480" width="105" height="40" as="geometry" />
        </mxCell>
      </root>
    </mxGraphModel>
  </diagram>
</mxfile>
